<svg width="900" height="1100" viewBox="0 0 900 1100" fill="none" xmlns="http://www.w3.org/2000/svg">
  <rect width="900" height="1100" rx="40" fill="#F8FAFC"/>
  <rect x="62" y="62" width="776" height="976" rx="30" fill="url(#bg)"/>
  <rect x="116" y="120" width="668" height="154" rx="28" fill="#0F172A"/>
  <text x="152" y="192" fill="white" font-family="Space Grotesk, sans-serif" font-size="52" font-weight="700">Aman Sagar</text>
  <text x="152" y="236" fill="#A5F3FC" font-family="Outfit, sans-serif" font-size="24">Full Stack Developer | MERN Stack</text>
  <rect x="116" y="326" width="292" height="640" rx="24" fill="white" fill-opacity="0.76"/>
  <rect x="438" y="326" width="346" height="292" rx="24" fill="white" fill-opacity="0.76"/>
  <rect x="438" y="644" width="346" height="322" rx="24" fill="white" fill-opacity="0.76"/>
  <rect x="154" y="394" width="168" height="18" rx="9" fill="#0F172A"/>
  <rect x="154" y="436" width="196" height="12" rx="6" fill="#64748B"/>
  <rect x="154" y="468" width="180" height="12" rx="6" fill="#64748B"/>
  <rect x="154" y="550" width="168" height="18" rx="9" fill="#0F172A"/>
  <rect x="154" y="592" width="196" height="12" rx="6" fill="#64748B"/>
  <rect x="154" y="624" width="180" height="12" rx="6" fill="#64748B"/>
  <rect x="154" y="706" width="168" height="18" rx="9" fill="#0F172A"/>
  <rect x="154" y="748" width="196" height="12" rx="6" fill="#64748B"/>
  <rect x="154" y="780" width="180" height="12" rx="6" fill="#64748B"/>
  <rect x="478" y="390" width="160" height="20" rx="10" fill="#0F172A"/>
  <rect x="478" y="438" width="240" height="14" rx="7" fill="#64748B"/>
  <rect x="478" y="476" width="210" height="14" rx="7" fill="#64748B"/>
  <rect x="478" y="720" width="160" height="20" rx="10" fill="#0F172A"/>
  <rect x="478" y="768" width="240" height="14" rx="7" fill="#64748B"/>
  <rect x="478" y="806" width="210" height="14" rx="7" fill="#64748B"/>
  <defs>
    <linearGradient id="bg" x1="62" y1="62" x2="838" y2="1038" gradientUnits="userSpaceOnUse">
      <stop stop-color="#CCFBF1"/>
      <stop offset="0.52" stop-color="#E0F2FE"/>
      <stop offset="1" stop-color="#DBEAFE"/>
    </linearGradient>
  </defs>
</svg>
